# xmcd
#
# Track frame offsets: 
#        150
#        10894
#        24816
#        41215
#        59120
#        72948
#        85859
#        99121
#        113493
#        126075
#        140688
#        152992
#
# Disc length: 2279 seconds
#
# Revision: 0
# Processed by: cddbd v1.5.2PL0 Copyright (c) Steve Scherf et al.
# Submitted via: ExactAudioCopy v1.0b3
#
DISCID=9b08e50c
DTITLE=Mondo Generator - Hell Comes To Your Heart
DYEAR=2011
DGENRE=Terror
TTITLE0=Dead Silence
TTITLE1=The Way I Let You Down
TTITLE2=Burn the Bridge
TTITLE3=Won't Let Go
TTITLE4=Like the Sky
TTITLE5=This Isn't Love
TTITLE6=The Dirt Beneath
TTITLE7=Hang 'em High
TTITLE8=Central Nervous System High School
TTITLE9=Smashed Apart
TTITLE10=Night Calls
TTITLE11=The Last Train
EXTD=
EXTT0=
EXTT1=
EXTT2=
EXTT3=
EXTT4=
EXTT5=
EXTT6=
EXTT7=
EXTT8=
EXTT9=
EXTT10=
EXTT11=
PLAYORDER=
